# xmcd CD database file
#
# Track frame offsets:
#	150
#	13907
#	31077
#	45032
#	71895
#	92130
#	134161
#	156608
#	172674
#	192830
#	209404
#	229788
#
# Disc length: 3473 seconds
#
# Revision: 0
# Processed by: cddbd v1.5PL3 Copyright (c) Steve Scherf et al.
# Submitted via: CDex 1.51
#
DISCID=a20d8f0c
DTITLE=Unisa Orchestra Jazz - Take the "U" train
DYEAR=2002
DGENRE=Jazz
TTITLE0=Take the A train
TTITLE1=All of Me
TTITLE2=Sweet Georgia Brown
TTITLE3=Sister Sadie
TTITLE4=A Natural Woman
TTITLE5=Cercando in Terra Rossa
TTITLE6=Wisper not
TTITLE7=Easy to Love
TTITLE8=I'll remember April
TTITLE9=They Can't Take That Away From Me
TTITLE10=Soul lover
TTITLE11=Impossibilità di Intervento
EXTD=YEAR: 2002
EXTT0=
EXTT1=
EXTT2=
EXTT3=
EXTT4=
EXTT5=
EXTT6=
EXTT7=
EXTT8=
EXTT9=
EXTT10=
EXTT11=
PLAYORDER=
